<?xml version="1.0" encoding="utf-8"?>
<!-- Generator: Adobe Illustrator 23.0.1, SVG Export Plug-In . SVG Version: 6.00 Build 0)  -->
<svg version="1.1" id="Capa_1" xmlns="http://www.w3.org/2000/svg" xmlns:xlink="http://www.w3.org/1999/xlink" x="0px" y="0px"
	 viewBox="0 0 471.2 471.2" style="enable-background:new 0 0 471.2 471.2;" xml:space="preserve">
<style type="text/css">
	.st0{fill:#FFFFFF;}
</style>
<g>
	<g>
		<path class="st0" d="M457.7,230.1c-7.5,0-13.5,6-13.5,13.5v122.8c0,33.4-27.2,60.5-60.5,60.5H87.5C54.1,427,27,399.8,27,366.5
			V241.7c0-7.5-6-13.5-13.5-13.5S0,234.2,0,241.7v124.8C0,414.8,39.3,454,87.5,454h296.2c48.3,0,87.5-39.3,87.5-87.5V243.7
			C471.2,236.2,465.2,230.1,457.7,230.1z"/>
		<path class="st0" d="M159.3,126.2l62.8-62.8v273.9c0,7.5,6,13.5,13.5,13.5s13.5-6,13.5-13.5V63.3l62.8,62.8c2.6,2.6,6.1,4,9.5,4
			c3.5,0,6.9-1.3,9.5-4c5.3-5.3,5.3-13.8,0-19.1l-85.8-85.8c-2.5-2.5-6-4-9.5-4c-3.6,0-7,1.4-9.5,4L140.3,107
			c-5.3,5.3-5.3,13.8,0,19.1C145.5,131.4,154.1,131.4,159.3,126.2z"/>
	</g>
</g>
</svg>
